<svg xmlns="http://www.w3.org/2000/svg" viewBox="0 0 119.68 140.16"><defs><style>.cls-1,.cls-3{fill:#24a148;}.cls-2,.cls-3{isolation:isolate;}.cls-3{font-size:17px;font-family:IBMPlexSans-Medium, IBM Plex Sans;font-weight:500;}.cls-4{letter-spacing:0em;}</style></defs><title>doc</title><g id="Layer_2" data-name="Layer 2"><g id="Layer_1-2" data-name="Layer 1"><g id="Group_286" data-name="Group 286"><g id="Group_170" data-name="Group 170"><path id="Path_151" data-name="Path 151" class="cls-1" d="M93.54,25l-24-24a3.11,3.11,0,0,0-2.4-1H32.9a6.85,6.85,0,0,0-6.85,6.85h0V89.08a6.85,6.85,0,0,0,6.85,6.85H87.72a6.85,6.85,0,0,0,6.85-6.85V27.41a3.09,3.09,0,0,0-1-2.4ZM67.16,8.22,86.35,27.41H67.16ZM87.72,89.08H32.9V6.85H60.31V27.41a6.85,6.85,0,0,0,6.85,6.85H87.72Z"/><path id="Path_152" data-name="Path 152" class="cls-1" d="M43.18,68.52H77.44v6.86H43.18Zm0-20.55H77.44v6.85H43.18Z"/></g><g id="Documentation" class="cls-2"><text class="cls-3" transform="translate(0 135.77)">Document<tspan class="cls-4" x="80.24" y="0">a</tspan><tspan x="89.52" y="0">tion</tspan></text></g></g></g></g></svg>