<svg xmlns="http://www.w3.org/2000/svg" width="261" height="261" viewBox="0 0 261 261">
  <g id="Group_280" data-name="Group 280" transform="translate(-433 -692)">
    <rect id="Rectangle_240" data-name="Rectangle 240" width="261" height="261" transform="translate(433 692)" fill="#010205"/>
    <g id="Group_169" data-name="Group 169" transform="translate(500 734)">
      <path id="Path_148" data-name="Path 148" d="M19.474,98.1a8.737,8.737,0,1,1-8.737,8.737A8.737,8.737,0,0,1,19.474,98.1m0-8.737a17.474,17.474,0,1,0,17.474,17.474A17.474,17.474,0,0,0,19.474,89.368ZM63.158,10.737a8.737,8.737,0,1,1-8.737,8.737,8.737,8.737,0,0,1,8.737-8.737m0-8.737A17.474,17.474,0,1,0,80.631,19.474,17.474,17.474,0,0,0,63.158,2Zm43.684,8.737A8.737,8.737,0,1,1,98.1,19.474a8.737,8.737,0,0,1,8.737-8.737m0-8.737a17.474,17.474,0,1,0,17.474,17.474A17.474,17.474,0,0,0,106.842,2ZM71.894,98.1v17.474H54.421V98.1H71.894m8.737-8.737H45.684v34.947H80.631Z" transform="translate(0 0)" fill="#fff"/>
      <path id="Path_149" data-name="Path 149" d="M111.21,89.98V71.894A13.105,13.105,0,0,0,98.1,58.789H28.21a4.368,4.368,0,0,1-4.368-4.368V36.947H36.947V2H2V36.947H15.105V54.421A13.105,13.105,0,0,0,28.21,67.526H98.1a4.368,4.368,0,0,1,4.368,4.368V89.98a17.474,17.474,0,1,0,8.737,0ZM10.737,28.21V10.737H28.21V28.21Zm96.1,87.368a8.737,8.737,0,1,1,8.737-8.737A8.737,8.737,0,0,1,106.842,115.578Z" transform="translate(0 0)" fill="#fff"/>
    </g>
    <text id="Data_Sources" data-name="Data Sources" transform="translate(564 911)" fill="#fff" font-size="22" font-family="IBMPlexSans, IBM Plex Sans"><tspan x="-65.23" y="0">Data Sources</tspan></text>
  </g>
</svg>
