<svg id="Layer_1" data-name="Layer 1" xmlns="http://www.w3.org/2000/svg" viewBox="0 0 102.9 139.3"><defs><style>.cls-1,.cls-3{fill:#408bfc;}.cls-2,.cls-3{isolation:isolate;}.cls-3{font-size:17px;font-family:IBMPlexSans-Medium, IBM Plex Sans;font-weight:500;}.cls-4{letter-spacing:0em;}.cls-5{letter-spacing:0em;}.cls-6{letter-spacing:-0.01em;}</style></defs><title>dts</title><g id="Group_477" data-name="Group 477"><g id="Group_169" data-name="Group 169"><path id="Path_148" data-name="Path 148" class="cls-1" d="M462.88,322.56a6.78,6.78,0,1,1-6.78,6.77h0a6.78,6.78,0,0,1,6.78-6.77m0-6.78a13.56,13.56,0,1,0,13.56,13.55h0A13.56,13.56,0,0,0,462.88,315.78Zm33.89-61a6.78,6.78,0,1,1-6.78,6.78h0a6.78,6.78,0,0,1,6.78-6.78m0-6.78a13.56,13.56,0,1,0,13.56,13.56h0A13.56,13.56,0,0,0,496.77,248Zm33.89,6.78a6.78,6.78,0,1,1-6.78,6.78h0a6.78,6.78,0,0,1,6.78-6.78m0-6.78a13.56,13.56,0,1,0,13.56,13.56h0A13.56,13.56,0,0,0,530.66,248Zm-27.11,74.56v13.55H490V322.56h13.56m6.78-6.78H483.22v27.11h27.11Z" transform="translate(-445.55 -248)"/><path id="Path_149" data-name="Path 149" class="cls-1" d="M534.05,316.25v-14a10.16,10.16,0,0,0-10.17-10.16H469.66a3.39,3.39,0,0,1-3.39-3.39V275.11h10.17V248H449.33v27.11h10.16v13.56a10.17,10.17,0,0,0,10.17,10.16h54.22a3.39,3.39,0,0,1,3.39,3.39v14a13.56,13.56,0,1,0,6.78,0ZM456.1,268.33V254.78h13.56v13.55Zm74.56,67.78a6.78,6.78,0,1,1,6.78-6.78h0A6.78,6.78,0,0,1,530.66,336.11Z" transform="translate(-445.55 -248)"/></g><g id="Data_Sources" data-name="Data Sources" class="cls-2"><text class="cls-3" transform="translate(0 134.92)">D<tspan class="cls-4" x="11.61" y="0">a</tspan><tspan x="20.89" y="0">ta Sou</tspan><tspan class="cls-5" x="70.06" y="0">r</tspan><tspan class="cls-6" x="76.48" y="0">c</tspan><tspan x="85.05" y="0">es</tspan></text></g></g></svg>