<svg xmlns="http://www.w3.org/2000/svg" width="27" height="30.2" viewBox="0 0 27 30.2">
  <g id="Group_159" data-name="Group 159" transform="translate(-6 -2)">
    <path id="Path_132" data-name="Path 132" d="M32.595,9.874l-9.45-7.55A1.391,1.391,0,0,0,22.2,2H8.7A2.475,2.475,0,0,0,6,4.157V30.043A2.475,2.475,0,0,0,8.7,32.2H30.3A2.475,2.475,0,0,0,33,30.043V10.628a.9.9,0,0,0-.4-.755ZM22.2,4.589l7.56,6.04H22.2Zm8.1,25.454H8.7V4.157H19.5v6.471a2.475,2.475,0,0,0,2.7,2.157h8.1Z" transform="translate(0 0)" fill="#9fa5ad"/>
    <path id="Path_133" data-name="Path 133" d="M11,22H29v2H11Zm0-6H29v2H11Z" transform="translate(0 1.54)" fill="#9fa5ad"/>
  </g>
</svg>
