<svg xmlns="http://www.w3.org/2000/svg" width="27" height="28" viewBox="0 0 27 28">
  <g id="Group_160" data-name="Group 160" transform="translate(-2 -2)">
    <path id="Path_134" data-name="Path 134" d="M13,30A11,11,0,0,1,13,8a1,1,0,0,1,1,1v9h9a1,1,0,0,1,1,1A11,11,0,0,1,13,30ZM12,10.06A9,9,0,1,0,21.94,20H13a1,1,0,0,1-1-1Z" fill="#9fa5ad"/>
    <path id="Path_135" data-name="Path 135" d="M28,14H18a1,1,0,0,1-1-1V3a1,1,0,0,1,1-1A11,11,0,0,1,29,13a1,1,0,0,1-1,1Zm-9-2h7.94A9,9,0,0,0,19,4.06Z" fill="#9fa5ad"/>
  </g>
</svg>
