<svg xmlns="http://www.w3.org/2000/svg" width="28" height="28" viewBox="0 0 28 28">
  <g id="Group_162" data-name="Group 162" transform="translate(-2 -2)">
    <path id="Path_138" data-name="Path 138" d="M4,18H2V5A3,3,0,0,1,5,2H18V4H5A1,1,0,0,0,4,5Z" fill="#9fa5ad"/>
    <path id="Path_139" data-name="Path 139" d="M27,7H10a3,3,0,0,0-3,3V21a3,3,0,0,0,3,3h6V22H10a1,1,0,0,1-1-1V10a1,1,0,0,1,1-1H27a1,1,0,0,1,1,1V21a1,1,0,0,1-1,1H21.8L17,28.85,18.64,30l4.2-6H27a3,3,0,0,0,3-3V10A3,3,0,0,0,27,7Z" fill="#9fa5ad"/>
  </g>
</svg>
