<svg xmlns="http://www.w3.org/2000/svg" width="28" height="28" viewBox="0 0 28 28">
  <g id="Group_164" data-name="Group 164" transform="translate(-2 -2)">
    <path id="Path_142" data-name="Path 142" d="M16,2A14,14,0,1,0,30,16,14,14,0,0,0,16,2Zm0,26A12,12,0,1,1,28,16,12,12,0,0,1,16,28Z" fill="#9fa5ad"/>
    <circle id="Ellipse_22" data-name="Ellipse 22" cx="1.5" cy="1.5" r="1.5" transform="translate(14.5 22)" fill="#9fa5ad"/>
    <path id="Path_143" data-name="Path 143" d="M17,8H15.5A4.49,4.49,0,0,0,11,12.5V13h2v-.5A2.5,2.5,0,0,1,15.5,10H17a2.5,2.5,0,0,1,0,5H15v4.5h2V17a4.5,4.5,0,1,0,0-9Z" fill="#9fa5ad"/>
  </g>
</svg>
