<svg xmlns="http://www.w3.org/2000/svg" width="28" height="28" viewBox="0 0 28 28">
  <g id="Group_166" data-name="Group 166" transform="translate(-2 -2)">
    <path id="Path_146" data-name="Path 146" d="M16,24,9.91,15.4A8.14,8.14,0,0,1,16,2a8.08,8.08,0,0,1,8,8.13,8.2,8.2,0,0,1-1.8,5.13ZM16,4a6.07,6.07,0,0,0-6,6.13,6.19,6.19,0,0,0,1.49,4L16,20.52,20.63,14A6.24,6.24,0,0,0,22,10.13,6.07,6.07,0,0,0,16,4Z" fill="#9fa5ad"/>
    <circle id="Ellipse_23" data-name="Ellipse 23" cx="2" cy="2" r="2" transform="translate(14 7)" fill="#9fa5ad"/>
    <path id="Path_147" data-name="Path 147" d="M28,12H26v2h2V28H4V14H6V12H4a2,2,0,0,0-2,2V28a2,2,0,0,0,2,2H28a2,2,0,0,0,2-2V14A2,2,0,0,0,28,12Z" fill="#9fa5ad"/>
  </g>
</svg>
