<svg xmlns="http://www.w3.org/2000/svg" viewBox="0 0 123.04 144"><defs><style>.cls-1,.cls-3{fill:#ee538b;}.cls-2,.cls-3{isolation:isolate;}.cls-3{font-size:17.46px;font-family:IBMPlexSans-Medium, IBM Plex Sans;font-weight:500;}.cls-4{letter-spacing:-0.01em;}.cls-5{letter-spacing:0em;}.cls-6{letter-spacing:0em;}</style></defs><title>nav</title><g id="Layer_2" data-name="Layer 2"><g id="Layer_1-2" data-name="Layer 1"><g id="Group_287" data-name="Group 287"><g id="Group_171" data-name="Group 171"><path id="Path_153" data-name="Path 153" class="cls-1" d="M62.07,7.05A42.28,42.28,0,1,1,19.79,49.33h0A42.28,42.28,0,0,1,62.07,7.05h0m0-7A49.33,49.33,0,1,0,111.4,49.33,49.32,49.32,0,0,0,62.07,0Z"/><path id="Path_154" data-name="Path 154" class="cls-1" d="M86.61,29.73l-4.94-4.95L66.59,39.86a10.51,10.51,0,0,0-14,14l-15,15,4.94,5L57.55,58.79a10.51,10.51,0,0,0,14-14Zm-21,19.6a3.51,3.51,0,1,1-3.51-3.51,3.51,3.51,0,0,1,3.51,3.51Z"/><circle id="Ellipse_24" data-name="Ellipse 24" class="cls-1" cx="62.07" cy="19.32" r="5.27"/></g><g id="Navigation_Tips" data-name="Navigation Tips" class="cls-2"><text class="cls-3" transform="translate(0 139.5)">N<tspan class="cls-4" x="12.46" y="0">a</tspan><tspan x="21.89" y="0">vi</tspan><tspan class="cls-5" x="35.45" y="0">ga</tspan><tspan class="cls-6" x="54.3" y="0">tion Tips</tspan></text></g></g></g></g></svg>